<svg width="1438" height="799" viewBox="0 0 1438 799" fill="none" xmlns="http://www.w3.org/2000/svg">
<path d="M285.099 398.545C195.248 469.164 71.3581 474.438 0 464.532V799H1438V556.208C1424.16 556.208 1400.33 551.439 1376.98 556.208C1325.01 566.824 1263.62 647.65 1211.5 657.5C1084.5 681.5 951.5 509 951.5 509C951.5 509 857.91 407.864 794.5 346.5C732.5 286.5 673.824 252.5 547.5 252.5C445.478 252.5 347.5 349.5 285.099 398.545Z" fill="#FDF6EE"/>
<path d="M390 1C418.419 32.5504 492.606 94.1487 562.008 88.1391C648.759 80.6271 708 56 782.377 79.1247C828.677 93.5199 824.257 138.219 866.137 170.771C908.017 203.323 1090.49 124.197 1090.49 124.197C1090.49 124.197 1219.13 66.6047 1231.59 124.197C1244.06 181.789 1192.7 250.398 1216.14 264.421C1234.88 275.638 1371.86 224.357 1438 197.313" stroke="#E17A0E" stroke-opacity="0.24"/>
<path d="M90.3297 456.798C89.7908 454.553 91.8849 452.566 94.0992 453.222L100.742 455.19C102.956 455.846 103.63 458.653 101.954 460.243L96.9285 465.012C95.2532 466.601 92.4854 465.781 91.9465 463.535L90.3297 456.798Z" fill="#9AB1EC"/>
<circle cx="583.5" cy="183.5" r="4.5" fill="#FFD6D6"/>
<rect x="749.651" y="161.522" width="45.7199" height="45.7199" rx="10" transform="rotate(-35.9958 749.651 161.522)" fill="#0CBE64"/>
</svg>
